<svg id="kity_svg_6" xmlns="http://www.w3.org/2000/svg" xmlns:xlink="http://www.w3.org/1999/xlink" version="1.1" width="3659" height="856" style="background: rgb(251, 251, 251); visibility: visible;" viewBox="0 0 3659 856"><defs id="kity_defs_7"><linearGradient id="kity_linearGradient_17" x1="0" y1="0" x2="0" y2="1"><stop id="kity_stop_18" offset="0" stop-color="rgb(255, 255, 255)"></stop><stop id="kity_stop_19" offset="1" stop-color="rgb(204, 204, 204)"></stop></linearGradient><marker id="kity_marker_2" orient="auto" refX="6" refY="0" viewBox="-7 -7 14 14" markerWidth="7" markerHeight="7" markerUnits="userSpaceOnUse"><path id="kity_path_3" fill="rgb(115, 161, 191)" stroke="none" d="M6,0A6,6,0,1,1,-6,0A6,6,0,1,1,6,0"></path></marker></defs><g id="kity_g_8"><g id="minder1" text-rendering="optimize-speed"><g id="minder_connect_group1"><path id="kity_path_31" fill="none" stroke="rgb(115, 161, 191)" stroke-width="1" d="M1036.0000146776438,630.5000102967024A210.5,191,0,0,1,1246.5000146776438,439.5000102967024"></path><path id="kity_path_33" fill="none" stroke="rgb(115, 161, 191)" stroke-width="1" d="M1349.5000146776438,439.5000102967024C1364.5000146776438,439.5000102967024,1364.5000146776438,187.50001029670238,1379.5000146776438,187.50001029670238L1446.5000146776438,187.50001029670238"></path><path id="kity_path_35" fill="none" stroke="rgb(115, 161, 191)" stroke-width="1" d="M1446.5000146776438,187.50001029670238C1461.5000146776438,187.50001029670238,1461.5000146776438,44.500010296702385,1476.5000146776438,44.500010296702385L1555.5000146776438,44.500010296702385"></path><path id="kity_path_37" fill="none" stroke="rgb(115, 161, 191)" stroke-width="1" d="M1446.5000146776438,187.50001029670238C1461.5000146776438,187.50001029670238,1461.5000146776438,96.50001029670238,1476.5000146776438,96.50001029670238L1543.5000146776438,96.50001029670238"></path><path id="kity_path_39" fill="none" stroke="rgb(115, 161, 191)" stroke-width="1" d="M1446.5000146776438,187.50001029670238C1461.5000146776438,187.50001029670238,1461.5000146776438,148.50001029670238,1476.5000146776438,148.50001029670238L1555.5000146776438,148.50001029670238"></path><path id="kity_path_41" fill="none" stroke="rgb(115, 161, 191)" stroke-width="1" d="M1446.5000146776438,187.50001029670238C1461.5000146776438,187.50001029670238,1461.5000146776438,226.50001029670238,1476.5000146776438,226.50001029670238L1543.5000146776438,226.50001029670238"></path><path id="kity_path_43" fill="none" stroke="rgb(115, 161, 191)" stroke-width="1" d="M1543.5000146776438,226.50001029670238C1558.5000146776438,226.50001029670238,1558.5000146776438,226.50001029670238,1573.5000146776438,226.50001029670238L1652.5000146776438,226.50001029670238"></path><path id="kity_path_45" fill="none" stroke="rgb(115, 161, 191)" stroke-width="1" d="M1652.5000146776438,226.50001029670238C1667.5000146776438,226.50001029670238,1667.5000146776438,200.50001029670238,1682.5000146776438,200.50001029670238L1797.5000146776438,200.50001029670238"></path><path id="kity_path_47" fill="none" stroke="rgb(115, 161, 191)" stroke-width="1" d="M1797.5000146776438,200.50001029670238C1812.5000146776438,200.50001029670238,1812.5000146776438,200.50001029670238,1827.5000146776438,200.50001029670238L2101.500014677644,200.50001029670238"></path><path id="kity_path_49" fill="none" stroke="rgb(115, 161, 191)" stroke-width="1" d="M1652.5000146776438,226.50001029670238C1667.5000146776438,226.50001029670238,1667.5000146776438,252.50001029670238,1682.5000146776438,252.50001029670238L1796.5000146776438,252.50001029670238"></path><path id="kity_path_51" fill="none" stroke="rgb(115, 161, 191)" stroke-width="1" d="M1796.5000146776438,252.50001029670238C1811.5000146776438,252.50001029670238,1811.5000146776438,252.50001029670238,1826.5000146776438,252.50001029670238L2114.500014677644,252.50001029670238"></path><path id="kity_path_53" fill="none" stroke="rgb(115, 161, 191)" stroke-width="1" d="M1446.5000146776438,187.50001029670238C1461.5000146776438,187.50001029670238,1461.5000146776438,330.5000102967024,1476.5000146776438,330.5000102967024L1567.5000146776438,330.5000102967024"></path><path id="kity_path_55" fill="none" stroke="rgb(115, 161, 191)" stroke-width="1" d="M1567.5000146776438,330.5000102967024C1582.5000146776438,330.5000102967024,1582.5000146776438,330.5000102967024,1597.5000146776438,330.5000102967024L1736.5000146776438,330.5000102967024"></path><path id="kity_path_57" fill="none" stroke="rgb(115, 161, 191)" stroke-width="1" d="M1736.5000146776438,330.5000102967024C1751.5000146776438,330.5000102967024,1751.5000146776438,304.5000102967024,1766.5000146776438,304.5000102967024L2045.5000146776438,304.5000102967024"></path><path id="kity_path_59" fill="none" stroke="rgb(115, 161, 191)" stroke-width="1" d="M1736.5000146776438,330.5000102967024C1751.5000146776438,330.5000102967024,1751.5000146776438,356.5000102967024,1766.5000146776438,356.5000102967024L2036.5000146776438,356.5000102967024"></path><path id="kity_path_61" fill="none" stroke="rgb(115, 161, 191)" stroke-width="1" d="M1349.5000146776438,439.5000102967024C1364.5000146776438,439.5000102967024,1364.5000146776438,486.5000102967024,1379.5000146776438,486.5000102967024L1472.5000146776438,486.5000102967024"></path><path id="kity_path_63" fill="none" stroke="rgb(115, 161, 191)" stroke-width="1" d="M1472.5000146776438,486.5000102967024C1487.5000146776438,486.5000102967024,1487.5000146776438,486.5000102967024,1502.5000146776438,486.5000102967024L1665.5000146776438,486.5000102967024"></path><path id="kity_path_65" fill="none" stroke="rgb(115, 161, 191)" stroke-width="1" d="M1665.5000146776438,486.5000102967024C1680.5000146776438,486.5000102967024,1680.5000146776438,408.5000102967024,1695.5000146776438,408.5000102967024L1859.5000146776438,408.5000102967024"></path><path id="kity_path_67" fill="none" stroke="rgb(115, 161, 191)" stroke-width="1" d="M1665.5000146776438,486.5000102967024C1680.5000146776438,486.5000102967024,1680.5000146776438,460.5000102967024,1695.5000146776438,460.5000102967024L1830.5000146776438,460.5000102967024"></path><path id="kity_path_69" fill="none" stroke="rgb(115, 161, 191)" stroke-width="1" d="M1830.5000146776438,460.5000102967024C1845.5000146776438,460.5000102967024,1845.5000146776438,460.5000102967024,1860.5000146776438,460.5000102967024L1999.5000146776438,460.5000102967024"></path><path id="kity_path_71" fill="none" stroke="rgb(115, 161, 191)" stroke-width="1" d="M1665.5000146776438,486.5000102967024C1680.5000146776438,486.5000102967024,1680.5000146776438,564.5000102967024,1695.5000146776438,564.5000102967024L1870.5000146776438,564.5000102967024"></path><path id="kity_path_73" fill="none" stroke="rgb(115, 161, 191)" stroke-width="1" d="M1870.5000146776438,564.5000102967024C1885.5000146776438,564.5000102967024,1885.5000146776438,512.5000102967024,1900.5000146776438,512.5000102967024L2332.500014677644,512.5000102967024"></path><path id="kity_path_75" fill="none" stroke="rgb(115, 161, 191)" stroke-width="1" d="M1870.5000146776438,564.5000102967024C1885.5000146776438,564.5000102967024,1885.5000146776438,564.5000102967024,1900.5000146776438,564.5000102967024L2368.500014677644,564.5000102967024"></path><path id="kity_path_77" fill="none" stroke="rgb(115, 161, 191)" stroke-width="1" d="M1870.5000146776438,564.5000102967024C1885.5000146776438,564.5000102967024,1885.5000146776438,616.5000102967024,1900.5000146776438,616.5000102967024L2232.500014677644,616.5000102967024"></path><path id="kity_path_79" fill="none" stroke="rgb(115, 161, 191)" stroke-width="1" d="M1349.5000146776438,439.5000102967024C1364.5000146776438,439.5000102967024,1364.5000146776438,720.5000102967024,1379.5000146776438,720.5000102967024L1434.5000146776438,720.5000102967024"></path><path id="kity_path_81" fill="none" stroke="rgb(115, 161, 191)" stroke-width="1" d="M1434.5000146776438,720.5000102967024C1449.5000146776438,720.5000102967024,1449.5000146776438,668.5000102967024,1464.5000146776438,668.5000102967024L1705.5000146776438,668.5000102967024"></path><path id="kity_path_83" fill="none" stroke="rgb(115, 161, 191)" stroke-width="1" d="M1705.5000146776438,668.5000102967024C1720.5000146776438,668.5000102967024,1720.5000146776438,668.5000102967024,1735.5000146776438,668.5000102967024L2437.500014677644,668.5000102967024"></path><path id="kity_path_85" fill="none" stroke="rgb(115, 161, 191)" stroke-width="1" d="M1434.5000146776438,720.5000102967024C1449.5000146776438,720.5000102967024,1449.5000146776438,720.5000102967024,1464.5000146776438,720.5000102967024L1530.5000146776438,720.5000102967024"></path><path id="kity_path_87" fill="none" stroke="rgb(115, 161, 191)" stroke-width="1" d="M1530.5000146776438,720.5000102967024C1545.5000146776438,720.5000102967024,1545.5000146776438,720.5000102967024,1560.5000146776438,720.5000102967024L2069.500014677644,720.5000102967024"></path><path id="kity_path_89" fill="none" stroke="rgb(115, 161, 191)" stroke-width="1" d="M1434.5000146776438,720.5000102967024C1449.5000146776438,720.5000102967024,1449.5000146776438,772.5000102967024,1464.5000146776438,772.5000102967024L1566.5000146776438,772.5000102967024"></path><path id="kity_path_91" fill="none" stroke="rgb(115, 161, 191)" stroke-width="1" d="M1566.5000146776438,772.5000102967024C1581.5000146776438,772.5000102967024,1581.5000146776438,772.5000102967024,1596.5000146776438,772.5000102967024L2228.500014677644,772.5000102967024"></path><path id="kity_path_93" fill="none" stroke="rgb(115, 161, 191)" stroke-width="1" d="M2228.500014677644,772.5000102967024C2243.500014677644,772.5000102967024,2243.500014677644,772.5000102967024,2258.500014677644,772.5000102967024L3638.500014677644,772.5000102967024"></path><path id="kity_path_95" fill="none" stroke="rgb(115, 161, 191)" stroke-width="1" d="M1036.0000146776438,630.5000102967024A210.5,191,0,0,0,1246.5000146776438,821.5000102967024"></path><path id="kity_path_97" fill="none" stroke="rgb(115, 161, 191)" stroke-width="1" d="M1357.5000146776438,821.5000102967024C1372.5000146776438,821.5000102967024,1372.5000146776438,835.5000102967024,1387.5000146776438,835.5000102967024L1442.5000146776438,835.5000102967024"></path><path id="kity_path_99" fill="none" stroke="rgb(115, 161, 191)" stroke-width="1" d="M1442.5000146776438,835.5000102967024C1457.5000146776438,835.5000102967024,1457.5000146776438,835.5000102967024,1472.5000146776438,835.5000102967024L1596.5000146776438,835.5000102967024"></path><path id="kity_path_101" fill="none" stroke="rgb(115, 161, 191)" stroke-width="1" d="M1036.0000146776438,630.5000102967024A210.5,0,0,0,1,825.5000146776438,630.5000102967024"></path><path id="kity_path_103" fill="none" stroke="rgb(115, 161, 191)" stroke-width="1" d="M740.5000146776438,630.5000102967024C725.5000146776438,630.5000102967024,725.5000146776438,592.5000102967024,710.5000146776438,592.5000102967024L619.5000146776438,592.5000102967024"></path><path id="kity_path_105" fill="none" stroke="rgb(115, 161, 191)" stroke-width="1" d="M619.5000146776438,592.5000102967024C604.5000146776438,592.5000102967024,604.5000146776438,592.5000102967024,589.5000146776438,592.5000102967024L318.5000146776438,592.5000102967024"></path><path id="kity_path_107" fill="none" stroke="rgb(115, 161, 191)" stroke-width="1" d="M318.5000146776438,592.5000102967024C303.5000146776438,592.5000102967024,303.5000146776438,592.5000102967024,288.5000146776438,592.5000102967024L19.500014677643776,592.5000102967024"></path><path id="kity_path_109" fill="none" stroke="rgb(115, 161, 191)" stroke-width="1" d="M740.5000146776438,630.5000102967024C725.5000146776438,630.5000102967024,725.5000146776438,644.5000102967024,710.5000146776438,644.5000102967024L619.5000146776438,644.5000102967024"></path><path id="kity_path_111" fill="none" stroke="rgb(115, 161, 191)" stroke-width="1" d="M619.5000146776438,644.5000102967024C604.5000146776438,644.5000102967024,604.5000146776438,644.5000102967024,589.5000146776438,644.5000102967024L462.5000146776438,644.5000102967024"></path><path id="kity_path_113" fill="none" stroke="rgb(115, 161, 191)" stroke-width="1" d="M462.5000146776438,644.5000102967024C447.5000146776438,644.5000102967024,447.5000146776438,644.5000102967024,432.5000146776438,644.5000102967024L329.5000146776438,644.5000102967024"></path><path id="kity_path_115" fill="none" stroke="rgb(115, 161, 191)" stroke-width="1" d="M740.5000146776438,630.5000102967024C725.5000146776438,630.5000102967024,725.5000146776438,696.5000102967024,710.5000146776438,696.5000102967024L620.5000146776438,696.5000102967024"></path></g><g id="minder_node1"><path id="node_outline1" fill="rgb(115, 161, 191)" stroke="rgb(57, 80, 96)" d="M948.5000146776438,610.5000102967024h175a5,5,0,0,1,5,5v30a5,5,0,0,1,-5,5h-175a5,5,0,0,1,-5,-5v-30a5,5,0,0,1,5,-5z" stroke-width="3"></path><g id="node_text1" fill="white"><text id="kity_text_22" text-rendering="inherit" font-size="16" dy=".8em" y="620.1000101298093" x="967.5000146776438">kafka如何保证有序</text></g></g><g id="kity_g_12"><path id="kity_path_13" fill="none" stroke="none" d="M967.5000146776438,630.5000102967024h0v0h0z"></path></g><g id="kity_g_14"><path id="kity_path_15" fill="none" stroke="none" d="M967.5000146776438,630.5000102967024h0v0h0z"></path><path id="kity_path_16" fill="none" stroke="none"></path></g><g id="minder_node2"><g id="node_expander32" style="cursor: pointer;"><path id="kity_path_339" fill="white" stroke="gray" d="M1247.50002284348,439.5000046044588A6,6,0,1,1,1235.50002284348,439.5000046044588A6,6,0,1,1,1247.50002284348,439.5000046044588"></path><path id="kity_path_340" fill="none" stroke="gray" d="M1237.00002284348,439.5000046044588L1246.00002284348,439.5000046044588"></path></g><path id="node_outline33" fill="rgb(238, 243, 246)" stroke="rgb(115, 161, 191)" d="M1251.5000236481428,426.5000046044588h95a3,3,0,0,1,3,3v20a3,3,0,0,1,-3,3h-95a3,3,0,0,1,-3,-3v-20a3,3,0,0,1,3,-3z" stroke-width="1"></path><g id="node_text33" fill="black"><text id="kity_text_179" text-rendering="inherit" font-size="14" dy=".8em" y="430.40000463724135" x="1268.5000236481428">Producer</text></g></g><g id="minder_node3"><g id="node_expander14" style="cursor: pointer;"><path id="kity_path_285" fill="white" stroke="gray" d="M1389.50002707541,173.49999667704105A6,6,0,1,1,1377.50002707541,173.49999667704105A6,6,0,1,1,1389.50002707541,173.49999667704105"></path><path id="kity_path_286" fill="none" stroke="gray" d="M1379.00002707541,173.49999667704105L1388.00002707541,173.49999667704105"></path></g><path id="node_outline15" fill="none" stroke="none" d="M1394.500027552247,162.49999667704105h47a5,5,0,0,1,5,5v12a5,5,0,0,1,-5,5h-47a5,5,0,0,1,-5,-5v-12a5,5,0,0,1,5,-5z"></path><g id="node_text15" fill="black"><text id="kity_text_143" text-rendering="inherit" font-size="12" dy=".8em" y="165.69999675055345" x="1399.500027552247">主线程</text></g></g><g id="minder_node4"><g id="node_expander1" display="none" style="cursor: pointer;"><path id="kity_path_246" fill="white" stroke="gray" d="M1486.5000299662352,30.499992415308952A6,6,0,1,1,1474.5000299662352,30.499992415308952A6,6,0,1,1,1486.5000299662352,30.499992415308952"></path><path id="kity_path_247" fill="none" stroke="gray"></path></g><path id="node_outline2" fill="none" stroke="none" d="M1491.5000304430723,19.499992415308952h59a5,5,0,0,1,5,5v12a5,5,0,0,1,-5,5h-59a5,5,0,0,1,-5,-5v-12a5,5,0,0,1,5,-5z"></path><g id="node_text2" fill="black"><text id="kity_text_117" text-rendering="inherit" font-size="12" dy=".8em" y="22.69999248882135" x="1496.5000304430723">创建消息</text></g></g><g id="minder_node5"><g id="node_expander2" display="none" style="cursor: pointer;"><path id="kity_path_249" fill="white" stroke="gray" d="M1486.5000299662352,82.49999396502972A6,6,0,1,1,1474.5000299662352,82.49999396502972A6,6,0,1,1,1486.5000299662352,82.49999396502972"></path><path id="kity_path_250" fill="none" stroke="gray"></path></g><path id="node_outline3" fill="none" stroke="none" d="M1491.5000304430723,71.49999396502972h47a5,5,0,0,1,5,5v12a5,5,0,0,1,-5,5h-47a5,5,0,0,1,-5,-5v-12a5,5,0,0,1,5,-5z"></path><g id="node_text3" fill="black"><text id="kity_text_119" text-rendering="inherit" font-size="12" dy=".8em" y="74.69999403854212" x="1496.5000304430723">拦截器</text></g></g><g id="minder_node6"><g id="node_expander3" display="none" style="cursor: pointer;"><path id="kity_path_252" fill="white" stroke="gray" d="M1486.5000299662352,134.49999551475048A6,6,0,1,1,1474.5000299662352,134.49999551475048A6,6,0,1,1,1486.5000299662352,134.49999551475048"></path><path id="kity_path_253" fill="none" stroke="gray"></path></g><path id="node_outline4" fill="none" stroke="none" d="M1491.5000304430723,123.49999551475048h59a5,5,0,0,1,5,5v12a5,5,0,0,1,-5,5h-59a5,5,0,0,1,-5,-5v-12a5,5,0,0,1,5,-5z"></path><g id="node_text4" fill="black"><text id="kity_text_121" text-rendering="inherit" font-size="12" dy=".8em" y="126.69999558826288" x="1496.5000304430723">序列化器</text></g></g><g id="minder_node7"><g id="node_expander9" style="cursor: pointer;"><path id="kity_path_270" fill="white" stroke="gray" d="M1486.5000299662352,212.49999783933163A6,6,0,1,1,1474.5000299662352,212.49999783933163A6,6,0,1,1,1486.5000299662352,212.49999783933163"></path><path id="kity_path_271" fill="none" stroke="gray" d="M1476.0000299662352,212.49999783933163L1485.0000299662352,212.49999783933163"></path></g><path id="node_outline10" fill="none" stroke="none" d="M1491.5000304430723,201.49999783933163h47a5,5,0,0,1,5,5v12a5,5,0,0,1,-5,5h-47a5,5,0,0,1,-5,-5v-12a5,5,0,0,1,5,-5z"></path><g id="node_text10" fill="black"><text id="kity_text_133" text-rendering="inherit" font-size="12" dy=".8em" y="204.69999791284403" x="1496.5000304430723">分区器</text></g></g><g id="minder_node8"><g id="node_expander8" style="cursor: pointer;"><path id="kity_path_267" fill="white" stroke="gray" d="M1583.5000328570604,212.49999783933163A6,6,0,1,1,1571.5000328570604,212.49999783933163A6,6,0,1,1,1583.5000328570604,212.49999783933163"></path><path id="kity_path_268" fill="none" stroke="gray" d="M1573.0000328570604,212.49999783933163L1582.0000328570604,212.49999783933163"></path></g><path id="node_outline9" fill="none" stroke="none" d="M1588.5000333338976,201.49999783933163h59a5,5,0,0,1,5,5v12a5,5,0,0,1,-5,5h-59a5,5,0,0,1,-5,-5v-12a5,5,0,0,1,5,-5z"></path><g id="node_text9" fill="black"><text id="kity_text_131" text-rendering="inherit" font-size="12" dy=".8em" y="204.69999791284403" x="1593.5000333338976">默认配置</text></g></g><g id="minder_node9"><g id="node_expander5" style="cursor: pointer;"><path id="kity_path_258" fill="white" stroke="gray" d="M1692.5000361055136,186.49999706447124A6,6,0,1,1,1680.5000361055136,186.49999706447124A6,6,0,1,1,1692.5000361055136,186.49999706447124"></path><path id="kity_path_259" fill="none" stroke="gray" d="M1682.0000361055136,186.49999706447124L1691.0000361055136,186.49999706447124"></path></g><path id="node_outline6" fill="none" stroke="none" d="M1697.5000365823507,175.49999706447124h95a5,5,0,0,1,5,5v12a5,5,0,0,1,-5,5h-95a5,5,0,0,1,-5,-5v-12a5,5,0,0,1,5,-5z"></path><g id="node_text6" fill="black"><text id="kity_text_125" text-rendering="inherit" font-size="12" dy=".8em" y="178.69999713798364" x="1702.5000365823507">消息键值为 null</text></g></g><g id="minder_node10"><g id="node_expander4" display="none" style="cursor: pointer;"><path id="kity_path_255" fill="white" stroke="gray" d="M1837.5000404268503,186.49999706447124A6,6,0,1,1,1825.5000404268503,186.49999706447124A6,6,0,1,1,1837.5000404268503,186.49999706447124"></path><path id="kity_path_256" fill="none" stroke="gray"></path></g><path id="node_outline5" fill="none" stroke="none" d="M1842.5000409036875,175.49999706447124h254a5,5,0,0,1,5,5v12a5,5,0,0,1,-5,5h-254a5,5,0,0,1,-5,-5v-12a5,5,0,0,1,5,-5z"></path><g id="node_text5" fill="black"><text id="kity_text_123" text-rendering="inherit" font-size="12" dy=".8em" y="178.69999713798364" x="1847.5000409036875">使用轮询（Round Robin）算法决定分区归属</text></g></g><g id="minder_node11"><g id="node_expander7" style="cursor: pointer;"><path id="kity_path_264" fill="white" stroke="gray" d="M1692.5000361055136,238.499998614192A6,6,0,1,1,1680.5000361055136,238.499998614192A6,6,0,1,1,1692.5000361055136,238.499998614192"></path><path id="kity_path_265" fill="none" stroke="gray" d="M1682.0000361055136,238.499998614192L1691.0000361055136,238.499998614192"></path></g><path id="node_outline8" fill="none" stroke="none" d="M1697.5000365823507,227.499998614192h94a5,5,0,0,1,5,5v12a5,5,0,0,1,-5,5h-94a5,5,0,0,1,-5,-5v-12a5,5,0,0,1,5,-5z"></path><g id="node_text8" fill="black"><text id="kity_text_129" text-rendering="inherit" font-size="12" dy=".8em" y="230.6999986877044" x="1702.5000365823507">消息键值不为空</text></g></g><g id="minder_node12"><g id="node_expander6" display="none" style="cursor: pointer;"><path id="kity_path_261" fill="white" stroke="gray" d="M1836.500040397048,238.499998614192A6,6,0,1,1,1824.500040397048,238.499998614192A6,6,0,1,1,1836.500040397048,238.499998614192"></path><path id="kity_path_262" fill="none" stroke="gray"></path></g><path id="node_outline7" fill="none" stroke="none" d="M1841.5000408738852,227.499998614192h268a5,5,0,0,1,5,5v12a5,5,0,0,1,-5,5h-268a5,5,0,0,1,-5,-5v-12a5,5,0,0,1,5,-5z"></path><g id="node_text7" fill="black"><text id="kity_text_127" text-rendering="inherit" font-size="12" dy=".8em" y="230.6999986877044" x="1846.5000408738852">对键进行散列（Hash）的方式来决定分区归属。</text></g></g><g id="minder_node13"><g id="node_expander13" style="cursor: pointer;"><path id="kity_path_282" fill="white" stroke="gray" d="M1486.5000299662352,316.50000093877316A6,6,0,1,1,1474.5000299662352,316.50000093877316A6,6,0,1,1,1486.5000299662352,316.50000093877316"></path><path id="kity_path_283" fill="none" stroke="gray" d="M1476.0000299662352,316.50000093877316L1485.0000299662352,316.50000093877316"></path></g><path id="node_outline14" fill="none" stroke="none" d="M1491.5000304430723,305.50000093877316h71a5,5,0,0,1,5,5v12a5,5,0,0,1,-5,5h-71a5,5,0,0,1,-5,-5v-12a5,5,0,0,1,5,-5z"></path><g id="node_text14" fill="black"><text id="kity_text_141" text-rendering="inherit" font-size="12" dy=".8em" y="308.70000101228555" x="1496.5000304430723">消息累加器</text></g></g><g id="minder_node14"><g id="node_expander12" style="cursor: pointer;"><path id="kity_path_279" fill="white" stroke="gray" d="M1607.5000335723162,316.50000093877316A6,6,0,1,1,1595.5000335723162,316.50000093877316A6,6,0,1,1,1607.5000335723162,316.50000093877316"></path><path id="kity_path_280" fill="none" stroke="gray" d="M1597.0000335723162,316.50000093877316L1606.0000335723162,316.50000093877316"></path></g><path id="node_outline13" fill="none" stroke="none" d="M1612.5000340491533,305.50000093877316h119a5,5,0,0,1,5,5v12a5,5,0,0,1,-5,5h-119a5,5,0,0,1,-5,-5v-12a5,5,0,0,1,5,-5z"></path><g id="node_text13" fill="black"><text id="kity_text_139" text-rendering="inherit" font-size="12" dy=".8em" y="308.70000101228555" x="1617.5000340491533">作用：批量累积消息 </text></g></g><g id="minder_node15"><g id="node_expander10" display="none" style="cursor: pointer;"><path id="kity_path_273" fill="white" stroke="gray" d="M1776.5000386089087,290.5000001639128A6,6,0,1,1,1764.5000386089087,290.5000001639128A6,6,0,1,1,1776.5000386089087,290.5000001639128"></path><path id="kity_path_274" fill="none" stroke="gray"></path></g><path id="node_outline11" fill="none" stroke="none" d="M1781.5000390857458,279.5000001639128h259a5,5,0,0,1,5,5v12a5,5,0,0,1,-5,5h-259a5,5,0,0,1,-5,-5v-12a5,5,0,0,1,5,-5z"></path><g id="node_text11" fill="black"><text id="kity_text_135" text-rendering="inherit" font-size="12" dy=".8em" y="282.7000002374252" x="1786.5000390857458">将多个小消息合并成一个更大的批次（Batch）</text></g></g><g id="minder_node16"><g id="node_expander11" display="none" style="cursor: pointer;"><path id="kity_path_276" fill="white" stroke="gray" d="M1776.5000386089087,342.50000171363354A6,6,0,1,1,1764.5000386089087,342.50000171363354A6,6,0,1,1,1776.5000386089087,342.50000171363354"></path><path id="kity_path_277" fill="none" stroke="gray"></path></g><path id="node_outline12" fill="none" stroke="none" d="M1781.5000390857458,331.50000171363354h250a5,5,0,0,1,5,5v12a5,5,0,0,1,-5,5h-250a5,5,0,0,1,-5,-5v-12a5,5,0,0,1,5,-5z"></path><g id="node_text12" fill="black"><text id="kity_text_137" text-rendering="inherit" font-size="12" dy=".8em" y="334.70000178714594" x="1786.5000390857458">目的：从而减少网络请求次数，提高吞吐量。</text></g></g><g id="minder_node17"><g id="node_expander23" style="cursor: pointer;"><path id="kity_path_312" fill="white" stroke="gray" d="M1389.50002707541,472.50000558793545A6,6,0,1,1,1377.50002707541,472.50000558793545A6,6,0,1,1,1389.50002707541,472.50000558793545"></path><path id="kity_path_313" fill="none" stroke="gray" d="M1379.00002707541,472.50000558793545L1388.00002707541,472.50000558793545"></path></g><path id="node_outline24" fill="none" stroke="none" d="M1394.500027552247,461.50000558793545h73a5,5,0,0,1,5,5v12a5,5,0,0,1,-5,5h-73a5,5,0,0,1,-5,-5v-12a5,5,0,0,1,5,-5z"></path><g id="node_text24" fill="black"><text id="kity_text_161" text-rendering="inherit" font-size="12" dy=".8em" y="464.70000566144785" x="1399.500027552247">sender线程</text></g></g><g id="minder_node18"><g id="node_expander22" style="cursor: pointer;"><path id="kity_path_309" fill="white" stroke="gray" d="M1512.5000307410955,472.50000558793545A6,6,0,1,1,1500.5000307410955,472.50000558793545A6,6,0,1,1,1512.5000307410955,472.50000558793545"></path><path id="kity_path_310" fill="none" stroke="gray" d="M1502.0000307410955,472.50000558793545L1511.0000307410955,472.50000558793545"></path></g><path id="node_outline23" fill="none" stroke="none" d="M1517.5000312179327,461.50000558793545h143a5,5,0,0,1,5,5v12a5,5,0,0,1,-5,5h-143a5,5,0,0,1,-5,-5v-12a5,5,0,0,1,5,-5z"></path><g id="node_text23" fill="black"><text id="kity_text_159" text-rendering="inherit" font-size="12" dy=".8em" y="464.70000566144785" x="1522.5000312179327">发送消息至kafka broker</text></g></g><g id="minder_node19"><g id="node_expander15" display="none" style="cursor: pointer;"><path id="kity_path_288" fill="white" stroke="gray" d="M1705.5000364929438,394.5000032633543A6,6,0,1,1,1693.5000364929438,394.5000032633543A6,6,0,1,1,1705.5000364929438,394.5000032633543"></path><path id="kity_path_289" fill="none" stroke="gray"></path></g><path id="node_outline16" fill="none" stroke="none" d="M1710.500036969781,383.5000032633543h144a5,5,0,0,1,5,5v12a5,5,0,0,1,-5,5h-144a5,5,0,0,1,-5,-5v-12a5,5,0,0,1,5,-5z"></path><g id="node_text16" fill="black"><text id="kity_text_145" text-rendering="inherit" font-size="12" dy=".8em" y="386.7000033368667" x="1715.500036969781">1. 从消息累加器读取消息</text></g></g><g id="minder_node20"><g id="node_expander17" style="cursor: pointer;"><path id="kity_path_294" fill="white" stroke="gray" d="M1705.5000364929438,446.50000481307507A6,6,0,1,1,1693.5000364929438,446.50000481307507A6,6,0,1,1,1705.5000364929438,446.50000481307507"></path><path id="kity_path_295" fill="none" stroke="gray" d="M1695.0000364929438,446.50000481307507L1704.0000364929438,446.50000481307507"></path></g><path id="node_outline18" fill="none" stroke="none" d="M1710.500036969781,435.50000481307507h115a5,5,0,0,1,5,5v12a5,5,0,0,1,-5,5h-115a5,5,0,0,1,-5,-5v-12a5,5,0,0,1,5,-5z"></path><g id="node_text18" fill="black"><text id="kity_text_149" text-rendering="inherit" font-size="12" dy=".8em" y="438.70000488658746" x="1715.500036969781">2. 封装request对象</text></g></g><g id="minder_node21"><g id="node_expander16" display="none" style="cursor: pointer;"><path id="kity_path_291" fill="white" stroke="gray" d="M1870.500041410327,446.50000481307507A6,6,0,1,1,1858.500041410327,446.50000481307507A6,6,0,1,1,1870.500041410327,446.50000481307507"></path><path id="kity_path_292" fill="none" stroke="gray"></path></g><path id="node_outline17" fill="none" stroke="none" d="M1875.5000418871641,435.50000481307507h119a5,5,0,0,1,5,5v12a5,5,0,0,1,-5,5h-119a5,5,0,0,1,-5,-5v-12a5,5,0,0,1,5,-5z"></path><g id="node_text17" fill="black"><text id="kity_text_147" text-rendering="inherit" font-size="12" dy=".8em" y="438.70000488658746" x="1880.5000418871641">打包发送消息的载体</text></g></g><g id="minder_node22"><g id="node_expander21" style="cursor: pointer;"><path id="kity_path_306" fill="white" stroke="gray" d="M1705.5000364929438,550.5000079125166A6,6,0,1,1,1693.5000364929438,550.5000079125166A6,6,0,1,1,1705.5000364929438,550.5000079125166"></path><path id="kity_path_307" fill="none" stroke="gray" d="M1695.0000364929438,550.5000079125166L1704.0000364929438,550.5000079125166"></path></g><path id="node_outline22" fill="none" stroke="none" d="M1710.500036969781,539.5000079125166h155a5,5,0,0,1,5,5v12a5,5,0,0,1,-5,5h-155a5,5,0,0,1,-5,-5v-12a5,5,0,0,1,5,-5z"></path><g id="node_text22" fill="black"><text id="kity_text_157" text-rendering="inherit" font-size="12" dy=".8em" y="542.700007986029" x="1715.500036969781">3. 缓存至InFlightRequests</text></g></g><g id="minder_node23"><g id="node_expander18" display="none" style="cursor: pointer;"><path id="kity_path_297" fill="white" stroke="gray" d="M1910.5000426024199,498.50000636279583A6,6,0,1,1,1898.5000426024199,498.50000636279583A6,6,0,1,1,1910.5000426024199,498.50000636279583"></path><path id="kity_path_298" fill="none" stroke="gray"></path></g><path id="node_outline19" fill="none" stroke="none" d="M1915.500043079257,487.50000636279583h412a5,5,0,0,1,5,5v12a5,5,0,0,1,-5,5h-412a5,5,0,0,1,-5,-5v-12a5,5,0,0,1,5,-5z"></path><g id="node_text19" fill="black"><text id="kity_text_151" text-rendering="inherit" font-size="12" dy=".8em" y="490.70000643630823" x="1920.500043079257">作用：存放的是已经发出去、但还没有收到响应的Request对象，默认值为5</text></g></g><g id="minder_node24"><g id="node_expander19" display="none" style="cursor: pointer;"><path id="kity_path_300" fill="white" stroke="gray" d="M1910.5000426024199,550.5000079125166A6,6,0,1,1,1898.5000426024199,550.5000079125166A6,6,0,1,1,1910.5000426024199,550.5000079125166"></path><path id="kity_path_301" fill="none" stroke="gray"></path></g><path id="node_outline20" fill="none" stroke="none" d="M1915.500043079257,539.5000079125166h448a5,5,0,0,1,5,5v12a5,5,0,0,1,-5,5h-448a5,5,0,0,1,-5,-5v-12a5,5,0,0,1,5,-5z"></path><g id="node_text20" fill="black"><text id="kity_text_153" text-rendering="inherit" font-size="12" dy=".8em" y="542.700007986029" x="1920.500043079257">限制条件：一旦超出这个阈值，Producer就不会再往这个Broker节点发送请求了。</text></g></g><g id="minder_node25"><g id="node_expander20" display="none" style="cursor: pointer;"><path id="kity_path_303" fill="white" stroke="gray" d="M1910.5000426024199,602.5000094622374A6,6,0,1,1,1898.5000426024199,602.5000094622374A6,6,0,1,1,1910.5000426024199,602.5000094622374"></path><path id="kity_path_304" fill="none" stroke="gray"></path></g><path id="node_outline21" fill="none" stroke="none" d="M1915.500043079257,591.5000094622374h312a5,5,0,0,1,5,5v12a5,5,0,0,1,-5,5h-312a5,5,0,0,1,-5,-5v-12a5,5,0,0,1,5,-5z"></path><g id="node_text21" fill="black"><text id="kity_text_155" text-rendering="inherit" font-size="12" dy=".8em" y="594.7000095357498" x="1920.500043079257">目的：防止消息发送密集而导致Broker节点的负载过高。</text></g></g><g id="minder_node26"><g id="node_expander31" style="cursor: pointer;"><path id="kity_path_336" fill="white" stroke="gray" d="M1389.50002707541,706.5000125616789A6,6,0,1,1,1377.50002707541,706.5000125616789A6,6,0,1,1,1389.50002707541,706.5000125616789"></path><path id="kity_path_337" fill="none" stroke="gray" d="M1379.00002707541,706.5000125616789L1388.00002707541,706.5000125616789"></path></g><path id="node_outline32" fill="none" stroke="none" d="M1394.500027552247,695.5000125616789h35a5,5,0,0,1,5,5v12a5,5,0,0,1,-5,5h-35a5,5,0,0,1,-5,-5v-12a5,5,0,0,1,5,-5z"></path><g id="node_text32" fill="black"><text id="kity_text_177" text-rendering="inherit" font-size="12" dy=".8em" y="698.7000126351913" x="1399.500027552247">参数</text></g></g><g id="minder_node27"><g id="node_expander25" style="cursor: pointer;"><path id="kity_path_318" fill="white" stroke="gray" d="M1474.5000296086073,654.5000110119581A6,6,0,1,1,1462.5000296086073,654.5000110119581A6,6,0,1,1,1474.5000296086073,654.5000110119581"></path><path id="kity_path_319" fill="none" stroke="gray" d="M1464.0000296086073,654.5000110119581L1473.0000296086073,654.5000110119581"></path></g><path id="node_outline26" fill="none" stroke="none" d="M1479.5000300854445,643.5000110119581h221a5,5,0,0,1,5,5v12a5,5,0,0,1,-5,5h-221a5,5,0,0,1,-5,-5v-12a5,5,0,0,1,5,-5z"></path><g id="node_text26" fill="black"><text id="kity_text_165" text-rendering="inherit" font-size="12" dy=".8em" y="646.7000110854706" x="1484.5000300854445">max.in.flight.requests.per.connection</text></g></g><g id="minder_node28"><g id="node_expander24" display="none" style="cursor: pointer;"><path id="kity_path_315" fill="white" stroke="gray" d="M1745.5000376850367,654.5000110119581A6,6,0,1,1,1733.5000376850367,654.5000110119581A6,6,0,1,1,1745.5000376850367,654.5000110119581"></path><path id="kity_path_316" fill="none" stroke="gray"></path></g><path id="node_outline25" fill="none" stroke="none" d="M1750.5000381618738,643.5000110119581h682a5,5,0,0,1,5,5v12a5,5,0,0,1,-5,5h-682a5,5,0,0,1,-5,-5v-12a5,5,0,0,1,5,-5z"></path><g id="node_text25" fill="black"><text id="kity_text_163" text-rendering="inherit" font-size="12" dy=".8em" y="646.7000110854706" x="1755.5000381618738">该参数作用于InFlightRequests缓存区域，用来设置Producer在收到Broker响应之前，可以发送几个批次的消息，默认值为5。</text></g></g><g id="minder_node29"><g id="node_expander27" style="cursor: pointer;"><path id="kity_path_324" fill="white" stroke="gray" d="M1474.5000296086073,706.5000125616789A6,6,0,1,1,1462.5000296086073,706.5000125616789A6,6,0,1,1,1474.5000296086073,706.5000125616789"></path><path id="kity_path_325" fill="none" stroke="gray" d="M1464.0000296086073,706.5000125616789L1473.0000296086073,706.5000125616789"></path></g><path id="node_outline28" fill="none" stroke="none" d="M1479.5000300854445,695.5000125616789h46a5,5,0,0,1,5,5v12a5,5,0,0,1,-5,5h-46a5,5,0,0,1,-5,-5v-12a5,5,0,0,1,5,-5z"></path><g id="node_text28" fill="black"><text id="kity_text_169" text-rendering="inherit" font-size="12" dy=".8em" y="698.7000126351913" x="1484.5000300854445">retries</text></g></g><g id="minder_node30"><g id="node_expander26" display="none" style="cursor: pointer;"><path id="kity_path_321" fill="white" stroke="gray" d="M1570.5000324696302,706.5000125616789A6,6,0,1,1,1558.5000324696302,706.5000125616789A6,6,0,1,1,1570.5000324696302,706.5000125616789"></path><path id="kity_path_322" fill="none" stroke="gray"></path></g><path id="node_outline27" fill="none" stroke="none" d="M1575.5000329464674,695.5000125616789h489a5,5,0,0,1,5,5v12a5,5,0,0,1,-5,5h-489a5,5,0,0,1,-5,-5v-12a5,5,0,0,1,5,-5z"></path><g id="node_text27" fill="black"><text id="kity_text_167" text-rendering="inherit" font-size="12" dy=".8em" y="698.7000126351913" x="1580.5000329464674">设置当Producer发送消息失败时，可以进行重试的次数，默认值为0，也就是不进行重试。</text></g></g><g id="minder_node31"><g id="node_expander30" style="cursor: pointer;"><path id="kity_path_333" fill="white" stroke="gray" d="M1474.5000296086073,758.5000141113997A6,6,0,1,1,1462.5000296086073,758.5000141113997A6,6,0,1,1,1474.5000296086073,758.5000141113997"></path><path id="kity_path_334" fill="none" stroke="gray" d="M1464.0000296086073,758.5000141113997L1473.0000296086073,758.5000141113997"></path></g><path id="node_outline31" fill="none" stroke="none" d="M1479.5000300854445,747.5000141113997h82a5,5,0,0,1,5,5v12a5,5,0,0,1,-5,5h-82a5,5,0,0,1,-5,-5v-12a5,5,0,0,1,5,-5z"></path><g id="node_text31" fill="black"><text id="kity_text_175" text-rendering="inherit" font-size="12" dy=".8em" y="750.7000141849121" x="1484.5000300854445">【特别注意】</text></g></g><g id="minder_node32"><g id="node_expander29" style="cursor: pointer;"><path id="kity_path_330" fill="white" stroke="gray" d="M1606.5000335425138,758.5000141113997A6,6,0,1,1,1594.5000335425138,758.5000141113997A6,6,0,1,1,1606.5000335425138,758.5000141113997"></path><path id="kity_path_331" fill="none" stroke="gray" d="M1596.0000335425138,758.5000141113997L1605.0000335425138,758.5000141113997"></path></g><path id="node_outline30" fill="none" stroke="none" d="M1611.500034019351,747.5000141113997h612a5,5,0,0,1,5,5v12a5,5,0,0,1,-5,5h-612a5,5,0,0,1,-5,-5v-12a5,5,0,0,1,5,-5z"></path><g id="node_text30" fill="black"><text id="kity_text_173" text-rendering="inherit" font-size="12" dy=".8em" y="750.7000141849121" x="1616.500034019351">为保证发送消息有序，生产者端的max.in.flight.requests.per.connection和retries这两个参数必须得有一个等于0</text></g></g><g id="minder_node33"><g id="node_expander28" display="none" style="cursor: pointer;"><path id="kity_path_327" fill="white" stroke="gray" d="M2268.5000532716513,758.5000141113997A6,6,0,1,1,2256.5000532716513,758.5000141113997A6,6,0,1,1,2268.5000532716513,758.5000141113997"></path><path id="kity_path_328" fill="none" stroke="gray"></path></g><path id="node_outline29" fill="none" stroke="none" d="M2273.5000537484884,747.5000141113997h1360a5,5,0,0,1,5,5v12a5,5,0,0,1,-5,5h-1360a5,5,0,0,1,-5,-5v-12a5,5,0,0,1,5,-5z"></path><g id="node_text29" fill="black"><text id="kity_text_171" text-rendering="inherit" font-size="12" dy=".8em" y="750.7000141849121" x="2278.5000537484884">原因： 如果我们将retries参数值设置为1，在max.in.flight.requests.per.connection的参数值大于1的情况下，Request1批次的消息发送失败，Request2批次的消息发送成功，此时Request1批次的消息进行重试发送也成功了，那两者的顺序就反过来了。</text></g></g><g id="minder_node34"><g id="node_expander35" style="cursor: pointer;"><path id="kity_path_348" fill="white" stroke="gray" d="M1247.50002284348,821.500015988946A6,6,0,1,1,1235.50002284348,821.500015988946A6,6,0,1,1,1247.50002284348,821.500015988946"></path><path id="kity_path_349" fill="none" stroke="gray" d="M1237.00002284348,821.500015988946L1246.00002284348,821.500015988946"></path></g><path id="node_outline36" fill="rgb(238, 243, 246)" stroke="rgb(115, 161, 191)" d="M1251.5000236481428,808.500015988946h103a3,3,0,0,1,3,3v20a3,3,0,0,1,-3,3h-103a3,3,0,0,1,-3,-3v-20a3,3,0,0,1,3,-3z" stroke-width="1"></path><g id="node_text36" fill="black"><text id="kity_text_185" text-rendering="inherit" font-size="14" dy=".8em" y="812.4000160217286" x="1268.5000236481428">Consumer</text></g></g><g id="minder_node35"><g id="node_expander34" style="cursor: pointer;"><path id="kity_path_345" fill="white" stroke="gray" d="M1397.5000273138285,821.500015988946A6,6,0,1,1,1385.5000273138285,821.500015988946A6,6,0,1,1,1397.5000273138285,821.500015988946"></path><path id="kity_path_346" fill="none" stroke="gray" d="M1387.0000273138285,821.500015988946L1396.0000273138285,821.500015988946"></path></g><path id="node_outline35" fill="none" stroke="none" d="M1402.5000277906656,810.500015988946h35a5,5,0,0,1,5,5v12a5,5,0,0,1,-5,5h-35a5,5,0,0,1,-5,-5v-12a5,5,0,0,1,5,-5z"></path><g id="node_text35" fill="black"><text id="kity_text_183" text-rendering="inherit" font-size="12" dy=".8em" y="813.7000160624584" x="1407.5000277906656">参数</text></g></g><g id="minder_node36"><g id="node_expander33" display="none" style="cursor: pointer;"><path id="kity_path_342" fill="white" stroke="gray" d="M1482.5000298470259,821.500015988946A6,6,0,1,1,1470.5000298470259,821.500015988946A6,6,0,1,1,1482.5000298470259,821.500015988946"></path><path id="kity_path_343" fill="none" stroke="gray"></path></g><path id="node_outline34" fill="none" stroke="none" d="M1487.500030323863,810.500015988946h104a5,5,0,0,1,5,5v12a5,5,0,0,1,-5,5h-104a5,5,0,0,1,-5,-5v-12a5,5,0,0,1,5,-5z"></path><g id="node_text34" fill="black"><text id="kity_text_181" text-rendering="inherit" font-size="12" dy=".8em" y="813.7000160624584" x="1492.500030323863">max.poll.records</text></g></g><g id="minder_node37"><g id="node_expander43" style="cursor: pointer;"><path id="kity_path_372" fill="white" stroke="gray" d="M836.5000105947256,630.5000102967024A6,6,0,1,1,824.5000105947256,630.5000102967024A6,6,0,1,1,836.5000105947256,630.5000102967024"></path><path id="kity_path_373" fill="none" stroke="gray" d="M826.0000105947256,630.5000102967024L835.0000105947256,630.5000102967024"></path></g><path id="node_outline44" fill="rgb(238, 243, 246)" stroke="rgb(115, 161, 191)" d="M743.500008508563,617.5000102967024h77a3,3,0,0,1,3,3v20a3,3,0,0,1,-3,3h-77a3,3,0,0,1,-3,-3v-20a3,3,0,0,1,3,-3z" stroke-width="1"></path><g id="node_text44" fill="black"><text id="kity_text_201" text-rendering="inherit" font-size="14" dy=".8em" y="621.400010329485" x="760.500008508563">有序性</text></g></g><g id="minder_node38"><g id="node_expander38" style="cursor: pointer;"><path id="kity_path_357" fill="white" stroke="gray" d="M712.5000068992376,578.5000087469816A6,6,0,1,1,700.5000068992376,578.5000087469816A6,6,0,1,1,712.5000068992376,578.5000087469816"></path><path id="kity_path_358" fill="none" stroke="gray" d="M702.0000068992376,578.5000087469816L711.0000068992376,578.5000087469816"></path></g><path id="node_outline39" fill="none" stroke="none" d="M624.5000046044588,567.5000087469816h71a5,5,0,0,1,5,5v12a5,5,0,0,1,-5,5h-71a5,5,0,0,1,-5,-5v-12a5,5,0,0,1,5,-5z"></path><g id="node_text39" fill="black"><text id="kity_text_191" text-rendering="inherit" font-size="12" dy=".8em" y="570.7000088204941" x="629.5000046044588">业务有序性</text></g></g><g id="minder_node39"><g id="node_expander37" style="cursor: pointer;"><path id="kity_path_354" fill="white" stroke="gray" d="M591.5000032931566,578.5000087469816A6,6,0,1,1,579.5000032931566,578.5000087469816A6,6,0,1,1,591.5000032931566,578.5000087469816"></path><path id="kity_path_355" fill="none" stroke="gray" d="M581.0000032931566,578.5000087469816L590.0000032931566,578.5000087469816"></path></g><path id="node_outline38" fill="none" stroke="none" d="M323.49999563395977,567.5000087469816h251a5,5,0,0,1,5,5v12a5,5,0,0,1,-5,5h-251a5,5,0,0,1,-5,-5v-12a5,5,0,0,1,5,-5z"></path><g id="node_text38" fill="black"><text id="kity_text_189" text-rendering="inherit" font-size="12" dy=".8em" y="570.7000088204941" x="328.49999563395977">保证某一个订单（设备等）的所有操作有序。</text></g></g><g id="minder_node40"><g id="node_expander36" display="none" style="cursor: pointer;"><path id="kity_path_351" fill="white" stroke="gray" d="M290.4999943226576,578.5000087469816A6,6,0,1,1,278.4999943226576,578.5000087469816A6,6,0,1,1,290.4999943226576,578.5000087469816"></path><path id="kity_path_352" fill="none" stroke="gray"></path></g><path id="node_outline37" fill="none" stroke="none" d="M24.499986723065376,567.5000087469816h249a5,5,0,0,1,5,5v12a5,5,0,0,1,-5,5h-249a5,5,0,0,1,-5,-5v-12a5,5,0,0,1,5,-5z"></path><g id="node_text37" fill="black"><text id="kity_text_187" text-rendering="inherit" font-size="12" dy=".8em" y="570.7000088204941" x="29.499986723065376">key使用同一个， 消息默认发送到同一个分区</text></g></g><g id="minder_node41"><g id="node_expander41" style="cursor: pointer;"><path id="kity_path_366" fill="white" stroke="gray" d="M712.5000068992376,630.5000102967024A6,6,0,1,1,700.5000068992376,630.5000102967024A6,6,0,1,1,712.5000068992376,630.5000102967024"></path><path id="kity_path_367" fill="none" stroke="gray" d="M702.0000068992376,630.5000102967024L711.0000068992376,630.5000102967024"></path></g><path id="node_outline42" fill="none" stroke="none" d="M624.5000046044588,619.5000102967024h71a5,5,0,0,1,5,5v12a5,5,0,0,1,-5,5h-71a5,5,0,0,1,-5,-5v-12a5,5,0,0,1,5,-5z"></path><g id="node_text42" fill="black"><text id="kity_text_197" text-rendering="inherit" font-size="12" dy=".8em" y="622.7000103702148" x="629.5000046044588">全局有序性</text></g></g><g id="minder_node42"><g id="node_expander40" style="cursor: pointer;"><path id="kity_path_363" fill="white" stroke="gray" d="M591.5000032931566,630.5000102967024A6,6,0,1,1,579.5000032931566,630.5000102967024A6,6,0,1,1,591.5000032931566,630.5000102967024"></path><path id="kity_path_364" fill="none" stroke="gray" d="M581.0000032931566,630.5000102967024L590.0000032931566,630.5000102967024"></path></g><path id="node_outline41" fill="none" stroke="none" d="M467.4999999254942,619.5000102967024h107a5,5,0,0,1,5,5v12a5,5,0,0,1,-5,5h-107a5,5,0,0,1,-5,-5v-12a5,5,0,0,1,5,-5z"></path><g id="node_text41" fill="black"><text id="kity_text_195" text-rendering="inherit" font-size="12" dy=".8em" y="622.7000103702148" x="472.4999999254942">所有的消息都有序</text></g></g><g id="minder_node43"><g id="node_expander39" display="none" style="cursor: pointer;"><path id="kity_path_360" fill="white" stroke="gray" d="M434.499998614192,630.5000102967024A6,6,0,1,1,422.499998614192,630.5000102967024A6,6,0,1,1,434.499998614192,630.5000102967024"></path><path id="kity_path_361" fill="none" stroke="gray"></path></g><path id="node_outline40" fill="none" stroke="none" d="M334.4999959617853,619.5000102967024h83a5,5,0,0,1,5,5v12a5,5,0,0,1,-5,5h-83a5,5,0,0,1,-5,-5v-12a5,5,0,0,1,5,-5z"></path><g id="node_text40" fill="black"><text id="kity_text_193" text-rendering="inherit" font-size="12" dy=".8em" y="622.7000103702148" x="339.4999959617853">只建一个分区</text></g></g><g id="minder_node44"><g id="node_expander42" display="none" style="cursor: pointer;"><path id="kity_path_369" fill="white" stroke="gray" d="M712.5000068992376,682.5000118464231A6,6,0,1,1,700.5000068992376,682.5000118464231A6,6,0,1,1,712.5000068992376,682.5000118464231"></path><path id="kity_path_370" fill="none" stroke="gray"></path></g><path id="node_outline43" fill="none" stroke="none" d="M625.5000046342611,671.5000118464231h70a5,5,0,0,1,5,5v12a5,5,0,0,1,-5,5h-70a5,5,0,0,1,-5,-5v-12a5,5,0,0,1,5,-5z"></path><g id="node_text43" fill="black"><text id="kity_text_199" text-rendering="inherit" font-size="12" dy=".8em" y="674.7000119199356" x="630.5000046342611">单线程消费</text></g></g></g></g></svg>